<svg xmlns="http://www.w3.org/2000/svg" width="1200" height="240" viewBox="0 0 1200 240" fill="none">
  <rect width="1200" height="240" fill="#111827"/>
  <text x="32" y="42" fill="#A5B4FC" font-family="monospace" font-size="22">Contribution Heatmap (Fallback)</text>
  <g transform="translate(32,70)">
    <rect width="18" height="18" x="0" y="0" fill="#1F2937"/><rect width="18" height="18" x="24" y="0" fill="#1F2937"/><rect width="18" height="18" x="48" y="0" fill="#374151"/><rect width="18" height="18" x="72" y="0" fill="#4B5563"/><rect width="18" height="18" x="96" y="0" fill="#6366F1"/><rect width="18" height="18" x="120" y="0" fill="#4B5563"/><rect width="18" height="18" x="144" y="0" fill="#1F2937"/><rect width="18" height="18" x="168" y="0" fill="#374151"/><rect width="18" height="18" x="192" y="0" fill="#6366F1"/><rect width="18" height="18" x="216" y="0" fill="#818CF8"/><rect width="18" height="18" x="240" y="0" fill="#4B5563"/><rect width="18" height="18" x="264" y="0" fill="#1F2937"/><rect width="18" height="18" x="288" y="0" fill="#374151"/><rect width="18" height="18" x="312" y="0" fill="#4B5563"/><rect width="18" height="18" x="336" y="0" fill="#1F2937"/><rect width="18" height="18" x="360" y="0" fill="#6366F1"/><rect width="18" height="18" x="384" y="0" fill="#4B5563"/><rect width="18" height="18" x="408" y="0" fill="#1F2937"/><rect width="18" height="18" x="432" y="0" fill="#374151"/><rect width="18" height="18" x="456" y="0" fill="#4B5563"/>
    <rect width="18" height="18" x="0" y="24" fill="#374151"/><rect width="18" height="18" x="24" y="24" fill="#4B5563"/><rect width="18" height="18" x="48" y="24" fill="#1F2937"/><rect width="18" height="18" x="72" y="24" fill="#6366F1"/><rect width="18" height="18" x="96" y="24" fill="#818CF8"/><rect width="18" height="18" x="120" y="24" fill="#4B5563"/><rect width="18" height="18" x="144" y="24" fill="#374151"/><rect width="18" height="18" x="168" y="24" fill="#1F2937"/><rect width="18" height="18" x="192" y="24" fill="#6366F1"/><rect width="18" height="18" x="216" y="24" fill="#4B5563"/><rect width="18" height="18" x="240" y="24" fill="#1F2937"/><rect width="18" height="18" x="264" y="24" fill="#374151"/><rect width="18" height="18" x="288" y="24" fill="#4B5563"/><rect width="18" height="18" x="312" y="24" fill="#818CF8"/><rect width="18" height="18" x="336" y="24" fill="#4B5563"/><rect width="18" height="18" x="360" y="24" fill="#1F2937"/><rect width="18" height="18" x="384" y="24" fill="#374151"/><rect width="18" height="18" x="408" y="24" fill="#4B5563"/><rect width="18" height="18" x="432" y="24" fill="#1F2937"/><rect width="18" height="18" x="456" y="24" fill="#6366F1"/>
    <rect width="18" height="18" x="0" y="48" fill="#1F2937"/><rect width="18" height="18" x="24" y="48" fill="#374151"/><rect width="18" height="18" x="48" y="48" fill="#4B5563"/><rect width="18" height="18" x="72" y="48" fill="#1F2937"/><rect width="18" height="18" x="96" y="48" fill="#374151"/><rect width="18" height="18" x="120" y="48" fill="#6366F1"/><rect width="18" height="18" x="144" y="48" fill="#818CF8"/><rect width="18" height="18" x="168" y="48" fill="#4B5563"/><rect width="18" height="18" x="192" y="48" fill="#1F2937"/><rect width="18" height="18" x="216" y="48" fill="#374151"/><rect width="18" height="18" x="240" y="48" fill="#4B5563"/><rect width="18" height="18" x="264" y="48" fill="#6366F1"/><rect width="18" height="18" x="288" y="48" fill="#1F2937"/><rect width="18" height="18" x="312" y="48" fill="#374151"/><rect width="18" height="18" x="336" y="48" fill="#4B5563"/><rect width="18" height="18" x="360" y="48" fill="#818CF8"/><rect width="18" height="18" x="384" y="48" fill="#4B5563"/><rect width="18" height="18" x="408" y="48" fill="#1F2937"/><rect width="18" height="18" x="432" y="48" fill="#6366F1"/><rect width="18" height="18" x="456" y="48" fill="#4B5563"/>
  </g>
  <text x="32" y="218" fill="#9CA3AF" font-family="monospace" font-size="14">Live chart provider unavailable. Showing local fallback.</text>
</svg>
